<svg xmlns="http://www.w3.org/2000/svg" version="1.1" width="10in" height="8.95in" viewBox = " 0 0 900 805.4999999999999" >
<!-- Front--> 
<g transform="translate(22.5, 22.5) " > 
<polygon style="stroke:#ff0000; fill:none; stroke-width:4.5" points="0, 0 58.49999999999999, 0 58.49999999999999, 31.86 116.99999999999999, 31.86 116.99999999999999, 0 153, 0 153, 31.86 211.49999999999997, 31.86 211.49999999999997, 0 270, 0 270, 50.06249999999999 238.14, 50.06249999999999 238.14, 100.12499999999999 270, 100.12499999999999 270, 136.125 238.14, 136.125 238.14, 172.125 270, 172.125 270, 208.125 238.14, 208.125 238.14, 244.125 270, 244.125 270, 280.125 238.14, 280.125 238.14, 330.1875 270, 330.1875 270, 380.24999999999994 211.49999999999997, 380.24999999999994 211.49999999999997, 348.38999999999993 153, 348.38999999999993 153, 380.24999999999994 116.99999999999999, 380.24999999999994 116.99999999999999, 348.38999999999993 58.49999999999999, 348.38999999999993 58.49999999999999, 380.24999999999994 0, 380.25 0, 330.1875 31.86, 330.1875 31.86, 280.125 0, 280.125 0, 244.125 31.86, 244.125 31.86, 208.125 0, 208.125 0, 172.125 31.86, 172.125 31.86, 136.125 0, 136.125 0, 100.12499999999999 31.86, 100.12499999999999 31.86, 50.06249999999999 0, 50.06249999999999 "/> 
</g>
<!-- Back--> 
<g transform="translate(292.5, 22.5) " > 
<polygon style="stroke:#ff0000; fill:none; stroke-width:4.5" points="0, 0 58.49999999999999, 0 58.49999999999999, 31.86 116.99999999999999, 31.86 116.99999999999999, 0 153, 0 153, 31.86 211.49999999999997, 31.86 211.49999999999997, 0 270, 0 270, 50.06249999999999 238.14, 50.06249999999999 238.14, 100.12499999999999 270, 100.12499999999999 270, 136.125 238.14, 136.125 238.14, 172.125 270, 172.125 270, 208.125 238.14, 208.125 238.14, 244.125 270, 244.125 270, 280.125 238.14, 280.125 238.14, 330.1875 270, 330.1875 270, 380.24999999999994 211.49999999999997, 380.24999999999994 211.49999999999997, 348.38999999999993 153, 348.38999999999993 153, 380.24999999999994 116.99999999999999, 380.24999999999994 116.99999999999999, 348.38999999999993 58.49999999999999, 348.38999999999993 58.49999999999999, 380.24999999999994 0, 380.25 0, 330.1875 31.86, 330.1875 31.86, 280.125 0, 280.125 0, 244.125 31.86, 244.125 31.86, 208.125 0, 208.125 0, 172.125 31.86, 172.125 31.86, 136.125 0, 136.125 0, 100.12499999999999 31.86, 100.12499999999999 31.86, 50.06249999999999 0, 50.06249999999999 "/> 
</g>
<!-- Left--> 
<g transform="translate(562.5, 22.5) " > 
<polygon style="stroke:#ff0000; fill:none; stroke-width:4.5" points="31.86, 0 51.74999999999999, 0 51.74999999999999, 31.86 103.49999999999999, 31.86 103.49999999999999, 0 139.5, 0 139.5, 31.86 175.5, 31.86 175.5, 0 211.5, 0 211.5, 31.86 263.25, 31.86 263.25, 0 283.14, 0 283.14, 50.06249999999999 315, 50.06249999999999 315, 100.12499999999999 283.14, 100.12499999999999 283.14, 136.125 315, 136.125 315, 172.125 283.14, 172.125 283.14, 208.125 315, 208.125 315, 244.125 283.14, 244.125 283.14, 280.125 315, 280.125 315, 330.1875 283.14, 330.1875 283.14, 380.24999999999994 263.25, 380.24999999999994 263.25, 348.38999999999993 211.5, 348.38999999999993 211.5, 380.24999999999994 175.5, 380.24999999999994 175.5, 348.38999999999993 139.5, 348.38999999999993 139.5, 380.24999999999994 103.49999999999999, 380.24999999999994 103.49999999999999, 348.38999999999993 51.74999999999999, 348.38999999999993 51.74999999999999, 380.24999999999994 31.86, 380.25 31.86, 330.1875 0, 330.1875 0, 280.125 31.86, 280.125 31.86, 244.125 0, 244.125 0, 208.125 31.86, 208.125 31.86, 172.125 0, 172.125 0, 136.125 31.86, 136.125 31.86, 100.12499999999999 0, 100.12499999999999 0, 50.06249999999999 31.86, 50.06249999999999 "/> 
</g>
<!-- Right--> 
<g transform="translate(562.5, 402.74999999999994) " > 
<polygon style="stroke:#ff0000; fill:none; stroke-width:4.5" points="31.86, 0 51.74999999999999, 0 51.74999999999999, 31.86 103.49999999999999, 31.86 103.49999999999999, 0 139.5, 0 139.5, 31.86 175.5, 31.86 175.5, 0 211.5, 0 211.5, 31.86 263.25, 31.86 263.25, 0 283.14, 0 283.14, 50.06249999999999 315, 50.06249999999999 315, 100.12499999999999 283.14, 100.12499999999999 283.14, 136.125 315, 136.125 315, 172.125 283.14, 172.125 283.14, 208.125 315, 208.125 315, 244.125 283.14, 244.125 283.14, 280.125 315, 280.125 315, 330.1875 283.14, 330.1875 283.14, 380.24999999999994 263.25, 380.24999999999994 263.25, 348.38999999999993 211.5, 348.38999999999993 211.5, 380.24999999999994 175.5, 380.24999999999994 175.5, 348.38999999999993 139.5, 348.38999999999993 139.5, 380.24999999999994 103.49999999999999, 380.24999999999994 103.49999999999999, 348.38999999999993 51.74999999999999, 348.38999999999993 51.74999999999999, 380.24999999999994 31.86, 380.25 31.86, 330.1875 0, 330.1875 0, 280.125 31.86, 280.125 31.86, 244.125 0, 244.125 0, 208.125 31.86, 208.125 31.86, 172.125 0, 172.125 0, 136.125 31.86, 136.125 31.86, 100.12499999999999 0, 100.12499999999999 0, 50.06249999999999 31.86, 50.06249999999999 "/> 
</g>
<!-- Top--> 
<g transform="translate(22.5, 402.74999999999994) " > 
<polygon style="stroke:#ff0000; fill:none; stroke-width:4.5" points="31.86, 31.86 58.49999999999999, 31.86 58.49999999999999, 0 116.99999999999999, 0 116.99999999999999, 31.86 153, 31.86 153, 0 211.49999999999997, 0 211.49999999999997, 31.86 238.14, 31.86 238.14, 51.74999999999999 270, 51.74999999999999 270, 103.49999999999999 238.14, 103.49999999999999 238.14, 139.5 270, 139.5 270, 175.5 238.14, 175.5 238.14, 211.5 270, 211.5 270, 263.25 238.14, 263.25 238.14, 283.14 211.49999999999997, 283.14 211.49999999999997, 315 153, 315 153, 283.14 116.99999999999999, 283.14 116.99999999999999, 315 58.49999999999999, 315 58.49999999999999, 283.14 31.86, 283.14 31.86, 263.25 0, 263.25 0, 211.5 31.86, 211.5 31.86, 175.5 0, 175.5 0, 139.5 31.86, 139.5 31.86, 103.49999999999999 0, 103.49999999999999 0, 51.74999999999999 31.86, 51.74999999999999 "/> 
</g>
<!-- Bottom--> 
<g transform="translate(292.5, 402.74999999999994) " > 
<polygon style="stroke:#ff0000; fill:none; stroke-width:4.5" points="31.86, 31.86 58.49999999999999, 31.86 58.49999999999999, 0 116.99999999999999, 0 116.99999999999999, 31.86 153, 31.86 153, 0 211.49999999999997, 0 211.49999999999997, 31.86 238.14, 31.86 238.14, 51.74999999999999 270, 51.74999999999999 270, 103.49999999999999 238.14, 103.49999999999999 238.14, 139.5 270, 139.5 270, 175.5 238.14, 175.5 238.14, 211.5 270, 211.5 270, 263.25 238.14, 263.25 238.14, 283.14 211.49999999999997, 283.14 211.49999999999997, 315 153, 315 153, 283.14 116.99999999999999, 283.14 116.99999999999999, 315 58.49999999999999, 315 58.49999999999999, 283.14 31.86, 283.14 31.86, 263.25 0, 263.25 0, 211.5 31.86, 211.5 31.86, 175.5 0, 175.5 0, 139.5 31.86, 139.5 31.86, 103.49999999999999 0, 103.49999999999999 0, 51.74999999999999 31.86, 51.74999999999999 "/> 
</g></svg>